   <svg
        className="fill-white/10"
        width="74"
        height="74"
        viewBox="0 0 32 32"
        fill="none"
        xmlns="http://www.w3.org/2000/svg"
      >
        <g clipPath="url(#clip0_433_9187)">
          <path d="M28.1905 0H3.80953C1.70558 0 0 1.70558 0 3.80953V28.1905C0 30.2944 1.70558 32 3.80953 32H28.1905C30.2944 32 32 30.2944 32 28.1905V3.80953C32 1.70558 30.2944 0 28.1905 0Z" />
          <path
            d="M16.6027 7.26519C16.5906 7.24912 16.5746 7.23706 16.5665 7.225L16.5625 7.221C16.4179 7.08438 16.221 7 16.004 7C15.783 7 15.5861 7.08438 15.4455 7.221L15.4415 7.225C15.4294 7.23706 15.4174 7.24912 15.4054 7.26519C15.1603 7.51831 14.8509 7.84375 14.5054 8.2335C13.8063 9.025 12.9544 10.0817 12.1549 11.3192C10.8129 13.4004 9.62769 15.9839 9.57944 18.6759C9.57944 18.7281 9.57544 18.7844 9.57544 18.8366C9.57544 19.6281 9.73213 20.3835 10.0134 21.0786C10.1781 21.4804 10.383 21.8581 10.6241 22.2116C11.7692 23.8911 13.75 25 16 25C19.5518 25 22.4286 22.2397 22.4286 18.8366C22.4286 13.6977 18.2018 8.89644 16.6027 7.26519ZM16 22.75C15.3652 22.75 14.7665 22.6013 14.2361 22.3442C17.8096 22.8571 19.8603 19.8571 19.6924 17.1411C19.9013 17.6272 20.0219 18.1656 20.0219 18.7321C20.0179 20.95 18.2179 22.75 16 22.75Z"
            fill="#1b1b1b"
          />
        </g>
        <defs>
          <clipPath id="clip0_433_9187">
            <rect width="32" height="32" rx="16" fill="white" />
          </clipPath>
        </defs>
      </svg>